<?xml version='1.0' encoding='UTF-8' standalone='no'?>
<!-- Created with Fritzing (http://www.fritzing.org/) -->
<svg xmlns="http://www.w3.org/2000/svg" viewBox="0 0 46.8 28.8" baseProfile="tiny" x="0in" y="0in"  height="0.4in" version="1.2" width="0.65in">
    <desc>
        <referenceFile>Amplified-Mic-Electret-v14_pcb.svg</referenceFile>
    </desc>
    <desc >Fritzing footprint generated by brd2svg</desc>
    <g id="silkscreen"  gorn="0.1" stroke-width="0">
        <path stroke="white"  d="M0.288,28.512L46.512,28.512L46.512,0.288L0.288,0.288L0.288,28.512" fill="none" stroke-width="0.576"/>
        <g  stroke-width="0">
            <title >element:JP1</title>
            <g  stroke-width="0">
                <title >package:1X03</title>
                <line stroke="white" y2="9"  y1="10.8" x1="41.4" stroke-linecap="round" x2="39.6" stroke-width="0.576"/>
                <line stroke="white" y2="5.4"  y1="9" x1="39.6" stroke-linecap="round" x2="39.6" stroke-width="0.576"/>
                <line stroke="white" y2="3.6"  y1="5.4" x1="39.6" stroke-linecap="round" x2="41.4" stroke-width="0.576"/>
                <line stroke="white" y2="5.4"  y1="3.6" x1="45" stroke-linecap="round" x2="46.8" stroke-width="0.576"/>
                <line stroke="white" y2="9"  y1="5.4" x1="46.8" stroke-linecap="round" x2="46.8" stroke-width="0.576"/>
                <line stroke="white" y2="10.8"  y1="9" x1="46.8" stroke-linecap="round" x2="45" stroke-width="0.576"/>
                <line stroke="white" y2="19.8"  y1="23.4" x1="39.6" stroke-linecap="round" x2="39.6" stroke-width="0.576"/>
                <line stroke="white" y2="18"  y1="19.8" x1="39.6" stroke-linecap="round" x2="41.4" stroke-width="0.576"/>
                <line stroke="white" y2="19.8"  y1="18" x1="45" stroke-linecap="round" x2="46.8" stroke-width="0.576"/>
                <line stroke="white" y2="16.2"  y1="18" x1="41.4" stroke-linecap="round" x2="39.6" stroke-width="0.576"/>
                <line stroke="white" y2="12.6"  y1="16.2" x1="39.6" stroke-linecap="round" x2="39.6" stroke-width="0.576"/>
                <line stroke="white" y2="10.8"  y1="12.6" x1="39.6" stroke-linecap="round" x2="41.4" stroke-width="0.576"/>
                <line stroke="white" y2="12.6"  y1="10.8" x1="45" stroke-linecap="round" x2="46.8" stroke-width="0.576"/>
                <line stroke="white" y2="16.2"  y1="12.6" x1="46.8" stroke-linecap="round" x2="46.8" stroke-width="0.576"/>
                <line stroke="white" y2="18"  y1="16.2" x1="46.8" stroke-linecap="round" x2="45" stroke-width="0.576"/>
                <line stroke="white" y2="25.2"  y1="25.2" x1="41.4" stroke-linecap="round" x2="45" stroke-width="0.576"/>
                <line stroke="white" y2="25.2"  y1="23.4" x1="39.6" stroke-linecap="round" x2="41.4" stroke-width="0.576"/>
                <line stroke="white" y2="23.4"  y1="25.2" x1="45" stroke-linecap="round" x2="46.8" stroke-width="0.576"/>
                <line stroke="white" y2="23.4"  y1="19.8" x1="46.8" stroke-linecap="round" x2="46.8" stroke-width="0.576"/>
                <line stroke="white" y2="3.6"  y1="3.6" x1="41.4" stroke-linecap="round" x2="45" stroke-width="0.576"/>
            </g>
        </g>
        <g  stroke-width="0">
            <title >element:M1</title>
            <g  stroke-width="0">
                <title >package:MIC-9.7MM</title>
            </g>
        </g>
        <g  stroke-width="0">
            <title >element:U1</title>
            <g  stroke-width="0">
                <title >package:SOT23-5</title>
                <line stroke="white" y2="10.368"  y1="10.368" x1="23.9828" stroke-linecap="round" x2="26.4172" stroke-width="0.576"/>
                <line stroke="white" y2="18.432"  y1="18.432" x1="26.4172" stroke-linecap="round" x2="23.9828" stroke-width="0.576"/>
                <line stroke="white" y2="13.6392"  y1="15.1608" x1="22.9028" stroke-linecap="round" x2="22.9028" stroke-width="0.576"/>
            </g>
        </g>
    </g>
    <g id="copper1"  gorn="0.2" stroke-width="0">
        <g id="copper0"  gorn="0.2.0" stroke-width="0">
            <circle stroke="#F7BD13" r="2.052" id="connector8pad" connectorname="VCC"  cy="21.6" cx="43.2" fill="none" gorn="0.2.0.0" stroke-width="1.224"/>
            <circle stroke="#F7BD13" r="2.052" id="connector9pad" connectorname="GND"  cy="14.4" cx="43.2" fill="none" gorn="0.2.0.1" stroke-width="1.224"/>
            <circle stroke="#F7BD13" r="2.052" id="connector10pad" connectorname="AUD"  cy="7.2" cx="43.2" fill="none" gorn="0.2.0.2" stroke-width="1.224"/>
        </g>
    </g>
</svg>
